<svg version="1.1" id="Layer_1" xmlns="http://www.w3.org/2000/svg" xmlns:xlink="http://www.w3.org/1999/xlink" x="0px" y="0px"
	 width="100%" viewBox="0 0 716 814" enable-background="new 0 0 716 814" xml:space="preserve">
<path fill="#FFFFFF" opacity="1.000000" stroke="none" 
	d="
M473.000000,815.000000 
	C315.333344,815.000000 158.166672,815.000000 1.000000,815.000000 
	C1.000000,543.666687 1.000000,272.333344 1.000000,1.000000 
	C239.666672,1.000000 478.333344,1.000000 717.000000,1.000000 
	C717.000000,272.333344 717.000000,543.666687 717.000000,815.000000 
	C635.833313,815.000000 554.666687,815.000000 473.000000,815.000000 
M538.500000,665.000000 
	C567.584290,665.000000 596.668579,665.000000 625.594971,665.000000 
	C625.594971,489.906769 625.594971,315.535370 625.594971,141.272476 
	C451.603027,141.272476 278.016205,141.272476 104.316643,141.272476 
	C104.316643,315.916351 104.316643,490.287598 104.316643,665.000000 
	C248.922012,665.000000 393.210999,665.000000 538.500000,665.000000 
z"/>
<path fill="#31B4A0" opacity="1.000000" stroke="none" 
	d="
M538.000000,665.000000 
	C393.210999,665.000000 248.922012,665.000000 104.316643,665.000000 
	C104.316643,490.287598 104.316643,315.916351 104.316643,141.272476 
	C278.016205,141.272476 451.603027,141.272476 625.594971,141.272476 
	C625.594971,315.535370 625.594971,489.906769 625.594971,665.000000 
	C596.668579,665.000000 567.584290,665.000000 538.000000,665.000000 
M383.500000,555.031799 
	C419.114716,555.358521 454.729309,555.696777 490.344208,556.001465 
	C496.993530,556.058411 496.999146,555.996216 496.999237,549.336792 
	C497.000336,452.526184 497.000000,355.715576 497.000000,258.904968 
	C497.000000,256.992828 497.000000,255.080658 497.000000,253.276688 
	C460.276123,253.276688 424.347748,253.276688 387.886230,253.276688 
	C387.886230,317.593262 387.886230,381.635437 387.886230,445.499268 
	C340.348480,445.499268 293.345917,445.499268 246.333649,445.499268 
	C246.333649,481.656067 246.333649,517.700989 246.333649,555.029968 
	C291.969360,555.029968 337.234680,555.029968 383.500000,555.031799 
z"/>
<path fill="#FFFFFF" opacity="1.000000" stroke="none" 
	d="
M383.000000,555.030884 
	C337.234680,555.029968 291.969360,555.029968 246.333649,555.029968 
	C246.333649,517.700989 246.333649,481.656067 246.333649,445.499268 
	C293.345917,445.499268 340.348480,445.499268 387.886230,445.499268 
	C387.886230,381.635437 387.886230,317.593262 387.886230,253.276688 
	C424.347748,253.276688 460.276123,253.276688 497.000000,253.276688 
	C497.000000,255.080658 497.000000,256.992828 497.000000,258.904968 
	C497.000000,355.715576 497.000336,452.526184 496.999237,549.336792 
	C496.999146,555.996216 496.993530,556.058411 490.344208,556.001465 
	C454.729309,555.696777 419.114716,555.358521 383.000000,555.030884 
z"/>
</svg>